{"title":"Formula.1.2015x07.Canada.Qualifying.SkyF1HD.720p50","uid":11995702,"size":6345557509,"categoryP":"video","categoryS":"hd___tv_shows","magnet":"?xt=urn:btih:8d456b818ac79bfaf1eb283b7de93f1b49ded68b&amp;dn=Formula.1.2015x07.Canada.Qualifying.SkyF1HD.720p50&amp;tr=udp%3A%2F%2Ftracker.openbittorrent.com%3A80&amp;tr=udp%3A%2F%2Fopen.demonii.com%3A1337&amp;tr=udp%3A%2F%2Ftracker.coppersurfer.tk%3A6969&amp;tr=udp%3A%2F%2Fexodus.desync.com%3A6969","seeders":6,"leechers":1,"uploader":"vickey1992","files":3,"time":1433627858,"description":"Qualifying for the 2015 Canadian Grand Prix from the Circuit Gilles Villeneuve in Montreal.\n\nVideo\nID : 1\nFormat : AVC\nFormat/Info : Advanced Video Codec\nFormat profile : High@L4\nFormat settings, CABAC : Yes\nFormat settings, ReFrames : 4 frames\nCodec ID : avc1\nCodec ID/Info : Advanced Video Coding\nDuration : 25mn 22s\nBit rate : 3 763 Kbps\nWidth : 1 280 pixels\nHeight : 720 pixels\nDisplay aspect ratio : 16:9\nFrame rate mode : Constant\nFrame rate : 50.000 fps\nColor space : YUV\nChroma subsampling : 4:2:0\nBit depth : 8 bits\nScan type : Progressive\nBits/(Pixel*Frame) : 0.082\nStream size : 683 MiB (85%)\nWriting library : x264 core 142 r2479 dd79a61\nEncoding settings : cabac=1 / ref=2 / deblock=1:0:0 / analyse=0x3:0x113 / me=hex / subme=6 / psy=1 / psy_rd=1.00:0.00 / mixed_ref=1 / me_range=16 / chroma_me=1 / trellis=1 / 8x8dct=1 / cqm=0 / deadzone=21,11 / fast_pskip=1 / chroma_qp_offset=-2 / threads=12 / lookahead_threads=2 / sliced_threads=0 / nr=0 / decimate=1 / interlaced=0 / bluray_compat=0 / constrained_intra=0 / bframes=3 / b_pyramid=2 / b_adapt=1 / b_bias=0 / direct=1 / weightb=1 / open_gop=0 / weightp=1 / keyint=500 / keyint_min=50 / scenecut=40 / intra_refresh=0 / rc_lookahead=30 / rc=crf / mbtree=1 / crf=20.0 / qcomp=0.60 / qpmin=0 / qpmax=69 / qpstep=4 / vbv_maxrate=25000 / vbv_bufsize=31250 / crf_max=0.0 / nal_hrd=none / filler=0 / ip_ratio=1.40 / aq=1:1.00\nColor range : Limited\nColor primaries : BT.709\nTransfer characteristics : BT.709\nMatrix coefficients : BT.709\n\nAudio #1\nID : 2\nFormat : AAC\nFormat/Info : Advanced Audio Codec\nFormat profile : LC\nCodec ID : 40\nDuration : 25mn 22s\nBit rate mode : Variable\nBit rate : 319 Kbps\nChannel(s) : 2 channels\nChannel(s)_Original : 6 channels\nChannel positions : Front: L C R, Side: L R, LFE\nSampling rate : 48.0 KHz\nCompression mode : Lossy\nStream size : 58.0 MiB (7%)\nTitle : AAC / AAC\n\nAudio #2\nID : 3\nFormat : AC-3\nFormat/Info : Audio Coding 3\nMode extension : CM (complete main)\nFormat settings, Endianness : Big\nCodec ID : ac-3\nDuration : 25mn 22s\nBit rate mode : Constant\nBit rate : 320 Kbps\nChannel(s) : 6 channels\nChannel positions : Front: L C R, Side: L R, LFE\nSampling rate : 48.0 KHz\nBit depth : 16 bits\nCompression mode : Lossy\nStream size : 58.1 MiB (7%)\nTitle : AC3 / AC3","torrent":{"xt":"urn:btih:8d456b818ac79bfaf1eb283b7de93f1b49ded68b","amp;dn":"Formula.1.2015x07.Canada.Qualifying.SkyF1HD.720p50","amp;tr":["udp%3A%2F%2Ftracker.openbittorrent.com%3A80","udp%3A%2F%2Fopen.demonii.com%3A1337","udp%3A%2F%2Ftracker.coppersurfer.tk%3A6969","udp%3A%2F%2Fexodus.desync.com%3A6969"],"infoHash":"8d456b818ac79bfaf1eb283b7de93f1b49ded68b","infoHashBuffer":{"type":"Buffer","data":[141,69,107,129,138,199,155,250,241,235,40,59,125,233,63,27,73,222,214,139]},"announce":[],"urlList":[]}}